<svg xmlns="http://www.w3.org/2000/svg" width="996" height="190" shape-rendering="geometricPrecision" text-rendering="geometricPrecision" image-rendering="optimizeQuality" fill-rule="evenodd" clip-rule="evenodd" viewBox="0 0 427.07 81.49"><rect fill="#4B89FF" x=".001" y=".001" width="81.488" height="81.489" rx="22" ry="22"/><path fill="#fff" d="M18.37 18.119h44.75l-7.266 8.658H36.941l11.72 13.967-11.72 13.968h18.912l7.265 8.658H18.37l18.987-22.626z"/><path fill="#4B89FF" fill-rule="nonzero" d="M111.509 30.408c.012 2.162.381 4.035 1.087 5.63a12.955 12.955 0 0 0 2.856 4.14 19.077 19.077 0 0 0 4.046 2.96 36.64 36.64 0 0 0 4.636 2.138 126.74 126.74 0 0 0 4.637 1.654c1.491.509 2.844 1.006 4.046 1.514 1.202.509 2.15 1.075 2.856 1.711.705.624 1.075 1.376 1.086 2.243.024 1.203-.554 2.047-1.71 2.544-1.157.497-2.983.728-5.504.717-1.861.011-3.78-.174-5.769-.544-1.988-.37-4-.948-6.012-1.757a30.936 30.936 0 0 1-5.908-3.18v12.14c2.59 1.433 5.457 2.52 8.625 3.284 3.168.763 6.51 1.144 10.035 1.156 2.671.011 5.18-.22 7.515-.706 2.336-.474 4.393-1.272 6.174-2.405 1.792-1.12 3.18-2.636 4.197-4.555 1.005-1.919 1.514-4.312 1.538-7.18-.012-2.139-.382-4.011-1.087-5.607a13.03 13.03 0 0 0-2.856-4.139 19.122 19.122 0 0 0-4.046-2.97 34.4 34.4 0 0 0-4.636-2.152 94.235 94.235 0 0 0-4.637-1.64 72.083 72.083 0 0 1-4.047-1.446c-1.202-.486-2.15-1.006-2.855-1.584-.705-.579-1.075-1.26-1.087-2.035a2.365 2.365 0 0 1 .555-1.596c.382-.462 1.018-.82 1.92-1.086.901-.266 2.138-.417 3.699-.44a28.26 28.26 0 0 1 5.527.462 25.59 25.59 0 0 1 5.18 1.527 21.322 21.322 0 0 1 4.554 2.59V20.002c-1.422-.81-3.006-1.503-4.763-2.093a35.705 35.705 0 0 0-5.572-1.33 39.212 39.212 0 0 0-5.967-.462c-2.509 0-4.867.29-7.075.867-2.196.578-4.139 1.457-5.827 2.636a12.715 12.715 0 0 0-3.954 4.452c-.948 1.803-1.434 3.907-1.457 6.335zm46.408-7.353v9.365h-5.272v9.712h5.272v13.18c.012 2.196.358 4.023 1.04 5.503.683 1.48 1.608 2.647 2.787 3.526a11.1 11.1 0 0 0 3.989 1.861c1.49.382 3.04.567 4.67.556 1.7 0 3.295-.116 4.798-.359a24.787 24.787 0 0 0 4.22-1.028v-9.158c-.89.312-1.768.52-2.624.648-.856.127-1.757.185-2.717.185-1.492 0-2.59-.358-3.307-1.052-.716-.706-1.063-1.711-1.063-3.04V42.131h9.018V32.42h-9.018V20.28l-11.793 2.775zm58.131 33.158v-9.295c-.011-2.96-.415-5.434-1.225-7.434s-1.977-3.596-3.503-4.787c-1.515-1.19-3.342-2.034-5.481-2.554-2.138-.521-4.543-.775-7.202-.764a36.946 36.946 0 0 0-4.937.37c-1.63.243-3.145.533-4.533.88a45.39 45.39 0 0 0-3.502.97v9.92a38.312 38.312 0 0 1 3.502-1.248 30.643 30.643 0 0 1 3.909-.949 25.484 25.484 0 0 1 4.243-.37c1.572.012 2.867.197 3.896.555 1.029.359 1.792.856 2.29 1.48a3.26 3.26 0 0 1 .75 2.127v1.18a34.827 34.827 0 0 0-3.502-.567 35.606 35.606 0 0 0-3.712-.197c-1.306 0-2.625.105-3.977.336-1.353.231-2.648.59-3.885 1.11a11.816 11.816 0 0 0-3.34 2.035c-.995.843-1.77 1.884-2.348 3.121-.567 1.226-.867 2.683-.879 4.359.012 1.618.312 3.052.914 4.324a9.236 9.236 0 0 0 2.485 3.226c1.064.89 2.29 1.56 3.689 2.023 1.387.462 2.89.694 4.497.694 2.347-.012 4.474-.37 6.37-1.075a18.9 18.9 0 0 0 5.214-2.949c.764 1.18 1.816 2.093 3.146 2.717 1.33.636 2.924.948 4.763.96a17.96 17.96 0 0 0 3.213-.29 15.05 15.05 0 0 0 2.752-.75v-7.285a3.98 3.98 0 0 1-.658.151 4.595 4.595 0 0 1-.66.058c-.404 0-.774-.058-1.121-.186a1.711 1.711 0 0 1-.832-.647c-.22-.3-.324-.717-.336-1.249zm-21.296-.694c.011-.878.266-1.572.752-2.103.485-.532 1.121-.914 1.918-1.156a9.307 9.307 0 0 1 2.602-.347c.81 0 1.584.069 2.324.185.74.115 1.376.265 1.908.439v4.51c-.89.647-1.792 1.097-2.683 1.363a9.784 9.784 0 0 1-2.798.37c-.832-.012-1.55-.161-2.15-.462-.601-.301-1.064-.694-1.387-1.18a2.888 2.888 0 0 1-.486-1.619zm31.77-32.464v9.365h-5.27v9.712h5.27v13.18c.012 2.196.36 4.023 1.041 5.503.683 1.48 1.608 2.647 2.787 3.526a11.106 11.106 0 0 0 3.989 1.861c1.49.382 3.04.567 4.67.556 1.7 0 3.295-.116 4.798-.359a24.787 24.787 0 0 0 4.22-1.028v-9.158a14.3 14.3 0 0 1-2.624.648c-.856.127-1.757.185-2.717.185-1.492 0-2.59-.358-3.307-1.052-.716-.706-1.063-1.711-1.063-3.04V42.131h9.018V32.42h-9.018V20.28l-11.793 2.775zm38.5 42.662V32.42H253.23v33.297h11.792zm.833-44.535c-.011-1.503-.335-2.728-.948-3.676a5.552 5.552 0 0 0-2.428-2.105c-1.017-.45-2.139-.67-3.353-.67-1.19 0-2.3.22-3.318.67-1.017.452-1.827 1.156-2.45 2.105-.625.948-.937 2.173-.96 3.676.023 1.515.335 2.764.96 3.723a5.659 5.659 0 0 0 2.45 2.128c1.018.45 2.128.67 3.318.67 1.214 0 2.336-.22 3.353-.67a5.605 5.605 0 0 0 2.428-2.128c.613-.96.937-2.208.948-3.723zm5.134 20.811c.023 1.7.335 3.145.971 4.336a8.888 8.888 0 0 0 2.497 2.97 15.49 15.49 0 0 0 3.41 1.955c1.238.508 2.487.947 3.723 1.306 1.238.359 2.382.694 3.411 1.017 1.04.324 1.873.694 2.498 1.099.636.416.959.925.97 1.537 0 .59-.358 1.006-1.086 1.272-.729.266-1.827.393-3.284.393a25.62 25.62 0 0 1-4.254-.381 26.664 26.664 0 0 1-4.44-1.157c-1.468-.53-2.832-1.19-4.07-2v9.365c1.78 1.006 3.805 1.77 6.07 2.278 2.266.52 4.706.775 7.319.775a32.419 32.419 0 0 0 6.023-.51c1.896-.346 3.584-.936 5.065-1.745 1.48-.82 2.647-1.92 3.49-3.307.856-1.387 1.296-3.122 1.307-5.19-.011-1.758-.335-3.238-.971-4.44a8.71 8.71 0 0 0-2.497-2.984 14.497 14.497 0 0 0-3.41-1.918 33.694 33.694 0 0 0-3.723-1.26 165.977 165.977 0 0 1-3.411-.984c-1.04-.312-1.873-.681-2.498-1.097-.635-.417-.959-.96-.97-1.608.011-.462.185-.81.508-1.052s.717-.405 1.202-.486a7.065 7.065 0 0 1 1.48-.127c1.319 0 2.683.162 4.116.474a24.86 24.86 0 0 1 4.14 1.249c1.317.532 2.474 1.133 3.468 1.815v-9.365c-1.77-.844-3.7-1.526-5.78-2.046-2.094-.52-4.348-.786-6.776-.798a25.68 25.68 0 0 0-5.4.52c-1.722.348-3.271.937-4.635 1.747a9.015 9.015 0 0 0-3.237 3.26c-.799 1.375-1.203 3.063-1.226 5.087zm37.528-18.938v9.365h-5.271v9.712h5.271v13.18c.012 2.196.359 4.023 1.04 5.503.683 1.48 1.608 2.647 2.787 3.526a11.106 11.106 0 0 0 3.99 1.861c1.49.382 3.04.567 4.67.556 1.7 0 3.294-.116 4.797-.359a24.78 24.78 0 0 0 4.221-1.028v-9.158c-.89.312-1.77.52-2.624.648-.856.127-1.758.185-2.718.185-1.49 0-2.59-.358-3.306-1.052-.717-.706-1.064-1.711-1.064-3.04V42.131h9.018V32.42h-9.018V20.28l-11.793 2.775zm38.5 42.662V32.42h-11.793v33.297h11.793zm.832-44.535c-.011-1.503-.335-2.728-.947-3.676a5.555 5.555 0 0 0-2.428-2.105c-1.018-.45-2.14-.67-3.353-.67-1.19 0-2.3.22-3.318.67-1.018.452-1.827 1.156-2.452 2.105-.624.948-.936 2.173-.959 3.676.023 1.515.335 2.764.96 3.723.624.96 1.433 1.665 2.45 2.128 1.018.45 2.128.67 3.32.67 1.212 0 2.334-.22 3.352-.67a5.608 5.608 0 0 0 2.428-2.128c.612-.96.936-2.208.947-3.723zm41.9 44.535l-11.515-16.926 10.822-16.371h-13.18l-7.285 11.654h-2.636V17.159h-11.793v48.558h11.793V53.092h2.497l8.186 12.625h13.11zm25.528-33.297v21.365a7.806 7.806 0 0 1-1.354 1.342 7.89 7.89 0 0 1-1.918 1.11c-.728.3-1.538.45-2.417.462-.982 0-1.85-.185-2.612-.566a4.1 4.1 0 0 1-1.781-1.711c-.44-.775-.659-1.747-.67-2.925V32.42h-11.793v20.672c0 1.884.266 3.653.798 5.295.531 1.642 1.341 3.099 2.427 4.347 1.087 1.25 2.475 2.231 4.151 2.937 1.677.716 3.653 1.075 5.943 1.087 2.208-.012 4.185-.451 5.93-1.307 1.746-.855 3.308-2.046 4.684-3.55v3.816h10.404V32.42h-11.792z"/></svg>